<svg width="33.8mm" height="23.5mm" version="1.1" viewBox="0 0 33.8 23.5" xmlns="http://www.w3.org/2000/svg" xmlns:xlink="http://www.w3.org/1999/xlink">
 <g transform="translate(-67.9-45)">
 <rect x="67.9" y="45" width="33.8" height="23.5" fill="#fff"/>
 <path d="m75 47 5 15 5-15 5 15 5-15" fill="none" stroke="#f00" stroke-linecap="round" stroke-linejoin="round" stroke-width="2"/>
 <g stroke-width=".1">
 <path id="b" d="m73.5 47 26.5 0" stroke="#00f"/>
 <use transform="translate(0 15)" xlink:href="#b"/>
 <use transform="translate(0 5)" xlink:href="#b"/>
 <use transform="translate(0 10)" xlink:href="#b"/>
 <path id="a" d="m75 63.5 0-16.5" stroke="#00f"/>
 <use transform="translate(20)" xlink:href="#a"/>
 <use transform="translate(5)" xlink:href="#a"/>
 <use transform="translate(10)" xlink:href="#a"/>
 <use transform="translate(15)" xlink:href="#a"/>
 <use transform="translate(25)" xlink:href="#a"/>
 </g>
 <g style="font-family:'Times New Roman';-inkscape-font-specification:'Times New Roman'" text-anchor="middle">
 <text x="87.7" y="67.1" font-size="2.5px">X, мм</text>
 <text transform="rotate(-90)" x="-54.7" y="70.6" font-size="2.5px" >Y, мм</text>
 <g font-size="2px">
 <text x="74.9" y="64.9">0</text>
 <text x="79.9" y="64.9">10</text>
 <text x="84.9" y="64.9">20</text>
 <text x="89.9" y="64.9">30</text>
 <text x="94.9" y="64.9">40</text>
 <text x="99.9" y="64.9">50</text>
 <text x="72.7" y="62.6">0</text>
 <text x="72.1" y="57.6">10</text>
 <text x="71.9" y="52.6">20</text>
 <text x="72" y="47.7">30</text></g></g></g></svg>
